<svg version="1.1" id="Layer_1" xmlns="http://www.w3.org/2000/svg" xmlns:xlink="http://www.w3.org/1999/xlink" x="0px" y="0px"
	 width="100%" viewBox="0 0 512 512" enable-background="new 0 0 512 512" xml:space="preserve">
<path fill="#FFFFFF" opacity="1.000000" stroke="none" 
	d="
M0.999999,317.000000 
	C1.000000,211.706467 1.000000,106.412941 1.000000,1.059707 
	C171.562363,1.059707 342.124756,1.059707 513.000000,1.059707 
	C513.000000,105.689102 513.000000,210.378525 512.654419,315.308319 
	C510.874786,299.077454 506.638977,283.299347 501.108276,267.753937 
	C493.264954,245.708374 481.057434,226.204651 465.920868,208.710297 
	C452.297852,192.965271 436.483368,179.455322 418.365356,168.820038 
	C403.246216,159.945084 387.575470,152.332642 370.584229,147.905884 
	C360.150421,145.187576 349.482208,143.369080 338.612793,141.104004 
	C337.895081,141.083130 337.483795,141.104767 336.723877,141.050232 
	C335.904144,141.020294 335.433075,141.066544 334.636841,140.985504 
	C333.211792,140.561951 332.111969,140.265686 330.902618,139.630859 
	C328.866028,135.551636 326.903809,131.828583 325.017883,128.067291 
	C316.368713,110.817528 295.395660,104.214531 277.540039,111.981804 
	C274.563507,113.553337 271.944672,115.090630 269.303955,116.640793 
	C254.710358,100.919640 229.588379,102.685181 216.837265,116.851082 
	C214.558624,119.382553 213.377045,120.013580 209.823959,118.626556 
	C199.947113,114.770943 189.914795,114.587082 179.940369,119.432068 
	C170.875702,123.835159 165.289764,131.044876 162.196579,138.500626 
	C154.889877,139.027267 148.519302,139.037979 142.308334,140.038940 
	C132.936829,141.549271 126.413101,147.649780 120.572571,155.099091 
	C94.842529,167.770172 71.390030,182.837936 52.144264,204.145187 
	C36.041344,221.972946 22.948870,241.614410 14.293745,263.882355 
	C9.672438,275.772125 7.183819,288.508179 3.998146,300.930359 
	C2.647559,306.196838 1.978700,311.638153 0.999999,317.000000 
z"/>
<path fill="#FCC062" opacity="1.000000" stroke="none" 
	d="
M338.919250,141.146515 
	C349.482208,143.369080 360.150421,145.187576 370.584229,147.905884 
	C387.575470,152.332642 403.246216,159.945084 418.365356,168.820038 
	C436.483368,179.455322 452.297852,192.965271 465.920868,208.710297 
	C481.057434,226.204651 493.264954,245.708374 501.108276,267.753937 
	C506.638977,283.299347 510.874786,299.077454 512.654419,315.774353 
	C513.000000,342.020905 513.000000,368.041779 512.688477,394.683655 
	C508.779419,405.379364 500.495392,408.813416 490.996124,408.876221 
	C454.298859,409.119080 417.598480,408.886749 380.594299,408.564880 
	C378.303864,408.199280 376.318359,408.014038 374.332825,408.013641 
	C293.548553,407.997894 212.764267,407.998779 132.121735,407.693481 
	C136.317062,403.706329 140.144592,399.730560 144.465302,396.393280 
	C159.283813,384.947601 166.524048,369.923035 167.037735,351.293976 
	C167.430939,337.034912 167.573685,322.707397 169.139709,308.555511 
	C172.068817,282.085724 181.470093,257.680908 195.383286,235.042343 
	C209.198044,212.563934 226.753174,193.524414 248.299683,178.198990 
	C272.467621,161.008987 298.907562,149.194214 328.181091,143.880585 
	C330.531433,143.453964 332.705841,142.058182 334.962006,141.112778 
	C335.433075,141.066544 335.904144,141.020294 336.852661,141.256958 
	C337.859833,141.408737 338.389557,141.277634 338.919250,141.146515 
M228.472443,230.773376 
	C222.066437,227.648270 216.113358,228.454376 212.102783,232.989944 
	C208.464005,237.105103 207.778305,243.408691 210.527939,247.811081 
	C213.568512,252.679382 217.968643,254.778168 223.650497,253.998260 
	C228.740692,253.299561 232.218933,250.321228 233.850723,245.598755 
	C235.869949,239.755035 233.904846,234.917969 228.472443,230.773376 
M229.629501,331.782196 
	C223.349854,327.521027 217.811539,327.740173 212.984024,332.440826 
	C208.433334,336.871918 207.468781,342.867462 210.512604,347.803040 
	C214.661407,354.530365 223.114594,356.256836 229.540329,351.633392 
	C234.666580,347.944855 237.188873,338.485107 229.629501,331.782196 
M314.013794,246.116272 
	C314.803436,247.382248 315.449371,248.770889 316.407379,249.893112 
	C320.746002,254.975479 328.020416,255.720810 333.434265,251.732712 
	C338.373718,248.094086 339.817505,240.015656 336.468018,234.758102 
	C333.004364,229.321335 326.533295,227.202026 320.847626,229.642380 
	C315.098663,232.109909 312.126556,238.669250 314.013794,246.116272 
M368.818970,304.922607 
	C369.409210,305.230377 369.982910,305.576324 370.592224,305.840027 
	C376.906036,308.573212 383.269562,306.209442 386.580414,299.913818 
	C389.789185,293.812256 387.697205,286.688782 381.650696,283.127380 
	C376.523224,280.107300 368.592255,281.807953 365.154175,286.664734 
	C360.687317,292.974792 361.627777,298.533630 368.818970,304.922607 
M268.092957,284.416565 
	C267.187927,285.598389 266.185028,286.718628 265.395264,287.973022 
	C262.464996,292.626953 262.965088,298.045074 266.622925,302.159698 
	C270.847382,306.911682 276.309052,308.261536 281.405029,305.813049 
	C287.898407,302.693146 290.923645,295.019806 288.076324,289.124390 
	C284.750641,282.238434 277.904572,279.466370 268.092957,284.416565 
M403.211792,232.739044 
	C402.467377,233.838318 401.613373,234.879852 400.998230,236.047241 
	C398.791351,240.235718 399.699249,246.189209 403.038696,249.979065 
	C406.259644,253.634445 412.161041,255.200790 416.694244,253.603592 
	C421.356964,251.960739 424.749390,247.153854 425.074463,242.295349 
	C425.455383,236.602158 422.857147,232.562576 418.085571,230.157120 
	C413.049622,227.618378 408.099915,228.503525 403.211792,232.739044 
M314.749176,335.506653 
	C310.339600,341.933472 314.683289,349.385132 319.198181,352.465851 
	C323.661499,355.511292 331.461121,354.406433 335.149017,350.257629 
	C339.008148,345.916199 339.199432,337.891235 335.553864,333.275085 
	C330.506805,326.884369 321.041962,327.599945 314.749176,335.506653 
M399.998444,344.005524 
	C400.759094,345.635345 401.294617,347.425140 402.319366,348.867310 
	C406.736359,355.083740 414.724670,356.037964 420.620117,351.186066 
	C426.292206,346.517944 426.764648,337.960938 421.644043,332.641205 
	C418.282532,329.148987 412.135651,327.661255 407.874939,329.644440 
	C402.200989,332.285522 399.258850,336.708862 399.998444,344.005524 
z"/>
<path fill="#FFFFFF" opacity="1.000000" stroke="none" 
	d="
M380.899261,408.831451 
	C417.598480,408.886749 454.298859,409.119080 490.996124,408.876221 
	C500.495392,408.813416 508.779419,405.379364 512.688477,395.152313 
	C513.000000,434.311249 513.000000,473.622528 513.000000,512.966919 
	C342.451202,512.966919 171.902390,512.966919 1.000000,512.966919 
	C1.000000,463.312988 1.000000,413.625153 1.356859,363.638000 
	C2.091905,365.079102 2.364720,366.850403 2.865453,368.554810 
	C6.021751,379.298218 11.746543,388.280518 20.677853,395.242401 
	C30.721935,403.071655 41.601196,408.396027 54.891567,408.250214 
	C56.035671,408.654053 56.979538,408.742401 58.393433,408.900269 
	C64.897964,408.927917 70.932457,408.886047 77.433395,408.911224 
	C177.904404,408.984436 277.908966,408.991058 377.913544,408.989929 
	C378.908783,408.989929 379.904022,408.886566 380.899261,408.831451 
z"/>
<path fill="#F7931E" opacity="1.000000" stroke="none" 
	d="
M54.691322,407.934723 
	C41.601196,408.396027 30.721935,403.071655 20.677853,395.242401 
	C11.746543,388.280518 6.021751,379.298218 2.865453,368.554810 
	C2.364720,366.850403 2.091905,365.079102 1.356859,363.169373 
	C1.000000,347.979095 1.000000,332.958221 0.999999,317.468658 
	C1.978700,311.638153 2.647559,306.196838 3.998146,300.930359 
	C7.183819,288.508179 9.672438,275.772125 14.293745,263.882355 
	C22.948870,241.614410 36.041344,221.972946 52.144264,204.145187 
	C71.390030,182.837936 94.842529,167.770172 120.606644,155.467133 
	C115.828323,165.640930 113.509026,176.059677 118.262520,186.627609 
	C120.729843,192.112976 124.836441,196.860962 127.791824,202.019867 
	C119.932945,204.243484 112.210747,205.727341 105.093651,208.673111 
	C90.350227,214.775421 79.942291,226.129044 70.710968,239.040070 
	C65.951874,243.509659 60.986374,247.532181 57.251629,252.483109 
	C49.355629,262.950439 43.991638,274.652252 42.958313,288.186646 
	C42.905617,288.374481 42.817677,288.754639 42.494667,288.863495 
	C41.028008,289.930420 39.689281,290.731812 38.772984,291.872528 
	C33.550327,298.374298 29.258579,305.459717 31.815462,314.120422 
	C32.926929,317.885254 32.642109,319.944183 29.869104,322.763245 
	C23.208910,329.533997 19.708372,337.770050 23.204605,347.214355 
	C28.320635,361.034149 36.135696,365.869537 51.909508,366.381470 
	C43.719368,377.936249 41.679604,389.522034 49.853985,401.661682 
	C51.325775,403.847412 53.071869,405.848450 54.691322,407.934723 
z"/>
<path fill="#F9B52B" opacity="1.000000" stroke="none" 
	d="
M334.636841,140.985504 
	C332.705841,142.058182 330.531433,143.453964 328.181091,143.880585 
	C298.907562,149.194214 272.467621,161.008987 248.299683,178.198990 
	C226.753174,193.524414 209.198044,212.563934 195.383286,235.042343 
	C181.470093,257.680908 172.068817,282.085724 169.139709,308.555511 
	C167.573685,322.707397 167.430939,337.034912 167.037735,351.293976 
	C166.524048,369.923035 159.283813,384.947601 144.465302,396.393280 
	C140.144592,399.730560 136.317062,403.706329 131.655304,407.694153 
	C113.043755,407.999359 95.040367,407.999817 77.209831,407.733398 
	C78.538986,406.241089 79.695282,405.015625 80.888588,403.807007 
	C80.925598,403.823792 80.863838,403.876617 81.122650,403.804230 
	C81.578613,403.442902 81.775764,403.153992 82.192650,402.619751 
	C87.862335,397.808990 93.872986,393.749603 98.590538,388.523041 
	C102.593285,384.088379 105.102654,378.305725 108.528503,372.864075 
	C109.209709,371.357758 109.860550,370.135529 110.023674,368.851349 
	C110.971825,361.387604 111.805305,353.909302 112.762939,345.946808 
	C112.890343,336.956207 112.932365,328.454712 113.001793,319.531586 
	C113.350128,317.335358 113.807869,315.573212 113.970818,313.784241 
	C115.589409,296.014893 120.135269,278.908905 127.332657,262.712219 
	C132.780136,250.453461 139.790558,238.889236 146.373840,226.823914 
	C147.209198,225.826096 147.750732,225.000961 148.347092,224.217545 
	C153.188110,217.858170 158.039398,211.506607 163.224121,205.061432 
	C168.031235,200.627106 172.501770,196.284027 177.277710,191.811096 
	C192.790787,177.741302 209.914871,166.727310 228.643631,158.138763 
	C253.693344,146.651550 280.020325,140.722443 307.531616,140.028198 
	C315.353973,139.830811 323.185028,139.979462 331.012115,139.969421 
	C332.111969,140.265686 333.211792,140.561951 334.636841,140.985504 
z"/>
<path fill="#608E03" opacity="1.000000" stroke="none" 
	d="
M176.972321,191.940948 
	C172.501770,196.284027 168.031235,200.627106 162.796188,205.009155 
	C150.755280,204.012756 139.478897,202.977417 128.202499,201.942078 
	C124.836441,196.860962 120.729843,192.112976 118.262520,186.627609 
	C113.509026,176.059677 115.828323,165.640930 120.926773,155.321609 
	C126.413101,147.649780 132.936829,141.549271 142.308334,140.038940 
	C148.519302,139.037979 154.889877,139.027267 162.196579,138.500626 
	C165.289764,131.044876 170.875702,123.835159 179.940369,119.432068 
	C189.914795,114.587082 199.947113,114.770943 209.823959,118.626556 
	C213.377045,120.013580 214.558624,119.382553 216.837265,116.851082 
	C229.588379,102.685181 254.710358,100.919640 269.303955,116.640793 
	C271.944672,115.090630 274.563507,113.553337 277.753235,112.160080 
	C277.000580,113.912407 275.628510,115.483589 274.363892,117.136932 
	C271.960297,120.279312 269.646851,120.963791 265.588562,119.089096 
	C261.380280,117.145119 256.292389,115.934334 251.699036,116.213074 
	C237.530563,117.072845 226.371078,123.382286 220.176758,136.745728 
	C218.759323,139.803635 217.033142,140.209412 213.894547,139.561417 
	C203.680710,137.452713 194.166306,140.140854 186.302094,146.446167 
	C171.819260,158.058075 168.685287,175.049316 176.972321,191.940948 
z"/>
<path fill="#7AAB02" opacity="1.000000" stroke="none" 
	d="
M177.277710,191.811096 
	C168.685287,175.049316 171.819260,158.058075 186.302094,146.446167 
	C194.166306,140.140854 203.680710,137.452713 213.894547,139.561417 
	C217.033142,140.209412 218.759323,139.803635 220.176758,136.745728 
	C226.371078,123.382286 237.530563,117.072845 251.699036,116.213074 
	C256.292389,115.934334 261.380280,117.145119 265.588562,119.089096 
	C269.646851,120.963791 271.960297,120.279312 274.363892,117.136932 
	C275.628510,115.483589 277.000580,113.912407 278.110962,112.125854 
	C295.395660,104.214531 316.368713,110.817528 325.017883,128.067291 
	C326.903809,131.828583 328.866028,135.551636 330.902618,139.630859 
	C323.185028,139.979462 315.353973,139.830811 307.531616,140.028198 
	C280.020325,140.722443 253.693344,146.651550 228.643631,158.138763 
	C209.914871,166.727310 192.790787,177.741302 177.277710,191.811096 
z"/>
<path fill="#F9B52B" opacity="1.000000" stroke="none" 
	d="
M338.612793,141.104019 
	C338.389557,141.277634 337.859833,141.408737 337.201355,141.333115 
	C337.483795,141.104767 337.895081,141.083130 338.612793,141.104019 
z"/>
<path fill="#F7941F" opacity="1.000000" stroke="none" 
	d="
M228.817719,230.946075 
	C233.904846,234.917969 235.869949,239.755035 233.850723,245.598755 
	C232.218933,250.321228 228.740692,253.299561 223.650497,253.998260 
	C217.968643,254.778168 213.568512,252.679382 210.527939,247.811081 
	C207.778305,243.408691 208.464005,237.105103 212.102783,232.989944 
	C216.113358,228.454376 222.066437,227.648270 228.817719,230.946075 
z"/>
<path fill="#F7941F" opacity="1.000000" stroke="none" 
	d="
M229.961487,331.965149 
	C237.188873,338.485107 234.666580,347.944855 229.540329,351.633392 
	C223.114594,356.256836 214.661407,354.530365 210.512604,347.803040 
	C207.468781,342.867462 208.433334,336.871918 212.984024,332.440826 
	C217.811539,327.740173 223.349854,327.521027 229.961487,331.965149 
z"/>
<path fill="#F7941F" opacity="1.000000" stroke="none" 
	d="
M313.862640,245.753922 
	C312.126556,238.669250 315.098663,232.109909 320.847626,229.642380 
	C326.533295,227.202026 333.004364,229.321335 336.468018,234.758102 
	C339.817505,240.015656 338.373718,248.094086 333.434265,251.732712 
	C328.020416,255.720810 320.746002,254.975479 316.407379,249.893112 
	C315.449371,248.770889 314.803436,247.382248 313.862640,245.753922 
z"/>
<path fill="#F7941F" opacity="1.000000" stroke="none" 
	d="
M368.497253,304.723022 
	C361.627777,298.533630 360.687317,292.974792 365.154175,286.664734 
	C368.592255,281.807953 376.523224,280.107300 381.650696,283.127380 
	C387.697205,286.688782 389.789185,293.812256 386.580414,299.913818 
	C383.269562,306.209442 376.906036,308.573212 370.592224,305.840027 
	C369.982910,305.576324 369.409210,305.230377 368.497253,304.723022 
z"/>
<path fill="#F7941F" opacity="1.000000" stroke="none" 
	d="
M268.385101,284.163818 
	C277.904572,279.466370 284.750641,282.238434 288.076324,289.124390 
	C290.923645,295.019806 287.898407,302.693146 281.405029,305.813049 
	C276.309052,308.261536 270.847382,306.911682 266.622925,302.159698 
	C262.965088,298.045074 262.464996,292.626953 265.395264,287.973022 
	C266.185028,286.718628 267.187927,285.598389 268.385101,284.163818 
z"/>
<path fill="#F7941F" opacity="1.000000" stroke="none" 
	d="
M403.481415,232.471786 
	C408.099915,228.503525 413.049622,227.618378 418.085571,230.157120 
	C422.857147,232.562576 425.455383,236.602158 425.074463,242.295349 
	C424.749390,247.153854 421.356964,251.960739 416.694244,253.603592 
	C412.161041,255.200790 406.259644,253.634445 403.038696,249.979065 
	C399.699249,246.189209 398.791351,240.235718 400.998230,236.047241 
	C401.613373,234.879852 402.467377,233.838318 403.481415,232.471786 
z"/>
<path fill="#F7941F" opacity="1.000000" stroke="none" 
	d="
M314.921021,335.164368 
	C321.041962,327.599945 330.506805,326.884369 335.553864,333.275085 
	C339.199432,337.891235 339.008148,345.916199 335.149017,350.257629 
	C331.461121,354.406433 323.661499,355.511292 319.198181,352.465851 
	C314.683289,349.385132 310.339600,341.933472 314.921021,335.164368 
z"/>
<path fill="#F7941F" opacity="1.000000" stroke="none" 
	d="
M399.979492,343.588440 
	C399.258850,336.708862 402.200989,332.285522 407.874939,329.644440 
	C412.135651,327.661255 418.282532,329.148987 421.644043,332.641205 
	C426.764648,337.960938 426.292206,346.517944 420.620117,351.186066 
	C414.724670,356.037964 406.736359,355.083740 402.319366,348.867310 
	C401.294617,347.425140 400.759094,345.635345 399.979492,343.588440 
z"/>
<path fill="#FAAB40" opacity="1.000000" stroke="none" 
	d="
M77.036972,408.000244 
	C95.040367,407.999817 113.043755,407.999359 131.513565,407.998230 
	C212.764267,407.998779 293.548553,407.997894 374.332825,408.013641 
	C376.318359,408.014038 378.303864,408.199280 380.594299,408.564880 
	C379.904022,408.886566 378.908783,408.989929 377.913544,408.989929 
	C277.908966,408.991058 177.904404,408.984436 77.450348,408.700195 
	C77.000847,408.422150 77.036972,408.000244 77.036972,408.000244 
z"/>
<path fill="#608E03" opacity="1.000000" stroke="none" 
	d="
M108.272835,373.119537 
	C105.102654,378.305725 102.593285,384.088379 98.590538,388.523041 
	C93.872986,393.749603 87.862335,397.808990 81.931580,402.701569 
	C81.255119,403.311310 81.059479,403.593964 80.863831,403.876617 
	C80.863838,403.876617 80.925598,403.823792 80.493484,403.795410 
	C72.682045,405.454926 65.302719,407.142822 57.923401,408.830750 
	C56.979538,408.742401 56.035671,408.654053 54.891563,408.250214 
	C53.071869,405.848450 51.325775,403.847412 49.853985,401.661682 
	C41.679604,389.522034 43.719368,377.936249 52.264862,366.339508 
	C63.538258,358.887390 63.538258,358.887390 61.439011,347.993988 
	C65.262146,351.075531 68.567085,354.354919 72.280922,357.076263 
	C83.098694,365.002960 94.940506,370.768341 108.272835,373.119537 
z"/>
<path fill="#F2931E" opacity="1.000000" stroke="none" 
	d="
M58.393433,408.900269 
	C65.302719,407.142822 72.682045,405.454926 80.456474,403.778625 
	C79.695282,405.015625 78.538986,406.241089 77.209831,407.733398 
	C77.036972,408.000244 77.000847,408.422150 76.983902,408.633179 
	C70.932457,408.886047 64.897964,408.927917 58.393433,408.900269 
z"/>
<path fill="#E23B3B" opacity="1.000000" stroke="none" 
	d="
M127.791824,202.019882 
	C139.478897,202.977417 150.755280,204.012756 162.459625,205.100372 
	C158.039398,211.506607 153.188110,217.858170 148.347092,224.217545 
	C147.750732,225.000961 147.209198,225.826096 145.906403,226.801987 
	C123.995667,225.336914 102.783791,242.089920 96.016205,261.446411 
	C88.545265,282.814575 95.286270,306.035034 112.974388,319.953217 
	C112.932365,328.454712 112.890343,336.956207 112.418747,345.826233 
	C104.963379,342.358673 97.596214,339.022675 91.017136,334.532104 
	C85.512428,330.774841 80.929092,325.667694 75.795258,320.844971 
	C72.957085,315.826080 69.624275,311.363251 67.716927,306.357300 
	C64.942551,299.075867 63.195404,291.402985 61.007011,283.438934 
	C61.212334,278.198059 60.612411,273.204254 61.794559,268.675598 
	C64.407974,258.664093 67.917938,248.886597 71.062195,239.013641 
	C79.942291,226.129044 90.350227,214.775421 105.093651,208.673111 
	C112.210747,205.727341 119.932945,204.243484 127.791824,202.019882 
z"/>
<path fill="#7AAB02" opacity="1.000000" stroke="none" 
	d="
M61.107635,347.936890 
	C63.538258,358.887390 63.538258,358.887390 52.279526,365.991821 
	C36.135696,365.869537 28.320635,361.034149 23.204605,347.214355 
	C19.708372,337.770050 23.208910,329.533997 29.869104,322.763245 
	C32.642109,319.944183 32.926929,317.885254 31.815462,314.120422 
	C29.258579,305.459717 33.550327,298.374298 38.772984,291.872528 
	C39.689281,290.731812 41.028008,289.930420 42.542500,289.303864 
	C40.460453,302.636719 43.123486,315.042053 48.544800,326.674530 
	C51.752201,333.556580 56.781563,339.589508 61.004837,346.327026 
	C61.047909,347.078827 61.077774,347.507874 61.107635,347.936890 
z"/>
<path fill="#608E03" opacity="1.000000" stroke="none" 
	d="
M60.991642,346.004242 
	C56.781563,339.589508 51.752201,333.556580 48.544800,326.674530 
	C43.123486,315.042053 40.460453,302.636719 42.865509,289.195007 
	C42.817677,288.754639 42.905617,288.374481 43.302822,288.075012 
	C49.470100,286.482727 55.240170,285.189880 61.010239,283.897034 
	C63.195404,291.402985 64.942551,299.075867 67.716927,306.357300 
	C69.624275,311.363251 72.957085,315.826080 75.649078,321.128235 
	C71.727798,326.563690 67.454597,331.167542 64.038010,336.337494 
	C62.247185,339.047302 61.958637,342.749969 60.991642,346.004242 
z"/>
<path fill="#E0770F" opacity="1.000000" stroke="none" 
	d="
M61.007011,283.438934 
	C55.240170,285.189880 49.470100,286.482727 43.355518,287.887207 
	C43.991638,274.652252 49.355629,262.950439 57.251629,252.483109 
	C60.986374,247.532181 65.951874,243.509659 70.710968,239.040070 
	C67.917938,248.886597 64.407974,258.664093 61.794559,268.675598 
	C60.612411,273.204254 61.212334,278.198059 61.007011,283.438934 
z"/>
<path fill="#BF1716" opacity="1.000000" stroke="none" 
	d="
M113.001793,319.531586 
	C95.286270,306.035034 88.545265,282.814575 96.016205,261.446411 
	C102.783791,242.089920 123.995667,225.336914 145.637985,226.993988 
	C139.790558,238.889236 132.780136,250.453461 127.332657,262.712219 
	C120.135269,278.908905 115.589409,296.014893 113.970818,313.784241 
	C113.807869,315.573212 113.350128,317.335358 113.001793,319.531586 
z"/>
<path fill="#547206" opacity="1.000000" stroke="none" 
	d="
M61.004845,346.327026 
	C61.958637,342.749969 62.247185,339.047302 64.038010,336.337494 
	C67.454597,331.167542 71.727798,326.563690 75.791565,321.441589 
	C80.929092,325.667694 85.512428,330.774841 91.017136,334.532104 
	C97.596214,339.022675 104.963379,342.358673 112.333374,346.315369 
	C111.805305,353.909302 110.971825,361.387604 110.023674,368.851349 
	C109.860550,370.135529 109.209709,371.357758 108.528488,372.864075 
	C94.940506,370.768341 83.098694,365.002960 72.280922,357.076263 
	C68.567085,354.354919 65.262146,351.075531 61.439011,347.993988 
	C61.077774,347.507874 61.047909,347.078827 61.004845,346.327026 
z"/>
<path fill="#F2931E" opacity="1.000000" stroke="none" 
	d="
M81.122650,403.804230 
	C81.059479,403.593964 81.255119,403.311310 81.711838,402.946838 
	C81.775764,403.153992 81.578613,403.442902 81.122650,403.804230 
z"/>
</svg>